<?xml version="1.0" encoding="UTF-8" standalone="no"?>
<!-- Created with Inkscape (http://www.inkscape.org/) -->

<svg
   xmlns:dc="http://purl.org/dc/elements/1.1/"
   xmlns:cc="http://creativecommons.org/ns#"
   xmlns:rdf="http://www.w3.org/1999/02/22-rdf-syntax-ns#"
   xmlns:svg="http://www.w3.org/2000/svg"
   xmlns="http://www.w3.org/2000/svg"
   xmlns:sodipodi="http://sodipodi.sourceforge.net/DTD/sodipodi-0.dtd"
   xmlns:inkscape="http://www.inkscape.org/namespaces/inkscape"
   width="744.09448819"
   height="1052.3622047"
   id="svg2"
   version="1.1"
   inkscape:version="0.48.4 r9939"
   sodipodi:docname="New document 1">
  <defs
     id="defs4" />
  <sodipodi:namedview
     id="base"
     pagecolor="#ffffff"
     bordercolor="#666666"
     borderopacity="1.0"
     inkscape:pageopacity="0.0"
     inkscape:pageshadow="2"
     inkscape:zoom="0.030935922"
     inkscape:cx="-3243.7333"
     inkscape:cy="-541.98552"
     inkscape:document-units="px"
     inkscape:current-layer="layer1"
     showgrid="true"
     inkscape:snap-grids="true"
     inkscape:window-width="1366"
     inkscape:window-height="744"
     inkscape:window-x="0"
     inkscape:window-y="24"
     inkscape:window-maximized="1">
    <inkscape:grid
       type="xygrid"
       id="grid2987" />
  </sodipodi:namedview>
  <metadata
     id="metadata7">
    <rdf:RDF>
      <cc:Work
         rdf:about="">
        <dc:format>image/svg+xml</dc:format>
        <dc:type
           rdf:resource="http://purl.org/dc/dcmitype/StillImage" />
        <dc:title></dc:title>
      </cc:Work>
    </rdf:RDF>
  </metadata>
  <g
     inkscape:label="Layer 1"
     inkscape:groupmode="layer"
     id="layer1">
    <path
       style="fill:none;stroke:#000000;stroke-width:1px;stroke-linecap:butt;stroke-linejoin:miter;stroke-opacity:1"
       d="m 155,662.36218 c 284.0901,-0.11904 279.16666,0.11905 420,0 l -50,-185 -324.28571,0.35715 z"
       id="path2985"
       inkscape:connector-curvature="0"
       sodipodi:nodetypes="ccccc" />
    <path
       style="fill:none;stroke:#000000;stroke-width:1px;stroke-linecap:butt;stroke-linejoin:miter;stroke-opacity:1"
       d="m 300,662.36218 60,350.00002 50,-350.00002 z"
       id="path2993"
       inkscape:connector-curvature="0" />
    <path
       style="fill:none;stroke:#000000;stroke-width:1px;stroke-linecap:butt;stroke-linejoin:miter;stroke-opacity:1"
       d="m 154.28572,232.39655 c 284.0901,0.11904 279.16666,-0.11905 420,0 l -50,185 -324.28571,-0.35715 z"
       id="path2985-9"
       inkscape:connector-curvature="0"
       sodipodi:nodetypes="ccccc" />
    <path
       style="fill:none;stroke:#000000;stroke-width:1px;stroke-linecap:butt;stroke-linejoin:miter;stroke-opacity:1"
       d="m 200,417.36218 0,60"
       id="path3019"
       inkscape:connector-curvature="0" />
    <path
       style="fill:none;stroke:#000000;stroke-width:1px;stroke-linecap:butt;stroke-linejoin:miter;stroke-opacity:1"
       d="m 525,417.36218 0,60"
       id="path3021"
       inkscape:connector-curvature="0" />
    <path
       style="fill:#ff0000;stroke:#000000;stroke-width:1px;stroke-linecap:butt;stroke-linejoin:miter;stroke-opacity:1"
       d="m 490,642.36218 -40,0"
       id="path3023"
       inkscape:connector-curvature="0" />
    <path
       style="fill:#000000;stroke-width:5;stroke-miterlimit:4;stroke-dasharray:none"
       d="m 157.10925,660.49382 c -0.008,-0.58929 10.02724,-41.73214 22.30082,-91.42857 l 22.3156,-90.35715 161.21555,0 161.21555,0 1.60255,6.07143 c 0.8814,3.33929 11.83475,43.96264 24.34077,90.27412 12.50603,46.31148 22.73823,84.7222 22.73823,85.35714 0,0.63496 -93.53571,1.15446 -207.85714,1.15446 -114.32143,0 -207.8638,-0.48215 -207.87193,-1.07143 z m 323.22907,-18.56073 c -5.69643,-0.27116 -15.01785,-0.27116 -20.71428,0 -5.69643,0.27117 -1.03572,0.49303 10.35714,0.49303 11.39286,0 16.05357,-0.22186 10.35714,-0.49303 z"
       id="path3067"
       inkscape:connector-curvature="0" />
    <path
       style="fill:#000000;stroke-width:5;stroke-miterlimit:4;stroke-dasharray:none"
       d="M 330.86577,834.76648 C 315.30936,743.82723 302.24808,667.97596 301.8407,666.2081 l -0.74069,-3.21428 53.90487,0 53.90487,0 -0.73766,3.92857 c -0.40571,2.16071 -11.19418,77.53571 -23.97439,167.5 -12.7802,89.96429 -23.64417,164.0477 -24.14214,164.6298 -0.49797,0.5821 -13.63338,-73.34647 -29.18979,-164.28571 z"
       id="path3069"
       inkscape:connector-curvature="0" />
    <path
       style="fill:#000000;stroke-width:5;stroke-miterlimit:4;stroke-dasharray:none"
       d="m 201.40975,447.27953 0,-28.57143 161.42857,0 161.42857,0 0,28.57143 0,28.57143 -161.42857,0 -161.42857,0 0,-28.57143 z"
       id="path3071"
       inkscape:connector-curvature="0" />
    <path
       style="fill:#000000;stroke-width:5;stroke-miterlimit:4;stroke-dasharray:none"
       d="m 200.66571,414.06525 c -0.3599,-0.98215 -10.32047,-41 -22.13459,-88.92857 -11.81412,-47.92858 -21.82851,-88.26786 -22.25421,-89.64286 -0.73469,-2.37308 9.82578,-2.5 208.01277,-2.5 166.40649,0 208.66134,0.36247 208.16896,1.78571 -0.33977,0.98215 -11.48263,42.11768 -24.7619,91.4123 l -24.14413,89.62659 -161.11626,0.0163 c -127.60354,0.0129 -161.25238,-0.35516 -161.77064,-1.76944 z"
       id="path3073"
       inkscape:connector-curvature="0" />
  </g>
</svg>
