<?xml version="1.0" encoding="UTF-8" standalone="no"?>
<!-- Created with Inkscape (http://www.inkscape.org/) -->

<svg
   xmlns:dc="http://purl.org/dc/elements/1.1/"
   xmlns:cc="http://creativecommons.org/ns#"
   xmlns:rdf="http://www.w3.org/1999/02/22-rdf-syntax-ns#"
   xmlns:svg="http://www.w3.org/2000/svg"
   xmlns="http://www.w3.org/2000/svg"
   xmlns:sodipodi="http://sodipodi.sourceforge.net/DTD/sodipodi-0.dtd"
   xmlns:inkscape="http://www.inkscape.org/namespaces/inkscape"
   width="744.09448819"
   height="1052.3622047"
   id="svg2"
   version="1.1"
   inkscape:version="0.48.4 r9939"
   sodipodi:docname="pin.svg">
  <defs
     id="defs4" />
  <sodipodi:namedview
     id="base"
     pagecolor="#ffffff"
     bordercolor="#666666"
     borderopacity="1.0"
     inkscape:pageopacity="0.0"
     inkscape:pageshadow="2"
     inkscape:zoom="0.49497475"
     inkscape:cx="829.24521"
     inkscape:cy="409.19996"
     inkscape:document-units="px"
     inkscape:current-layer="g3094"
     showgrid="true"
     inkscape:snap-grids="true"
     inkscape:window-width="1366"
     inkscape:window-height="744"
     inkscape:window-x="0"
     inkscape:window-y="24"
     inkscape:window-maximized="1">
    <inkscape:grid
       type="xygrid"
       id="grid2987" />
  </sodipodi:namedview>
  <metadata
     id="metadata7">
    <rdf:RDF>
      <cc:Work
         rdf:about="">
        <dc:format>image/svg+xml</dc:format>
        <dc:type
           rdf:resource="http://purl.org/dc/dcmitype/StillImage" />
        <dc:title></dc:title>
      </cc:Work>
    </rdf:RDF>
  </metadata>
  <g
     inkscape:label="Layer 1"
     inkscape:groupmode="layer"
     id="layer1">
    <g
       id="g3094">
      <path
         sodipodi:nodetypes="ccccc"
         inkscape:connector-curvature="0"
         id="path2985"
         d="M 128.6891,348.86176 C 329.65531,549.65962 326.00556,546.34658 425.67395,645.84661 L 521.13336,479.67651 291.5762,250.62443 z"
         style="fill:none;stroke:#000000;stroke-width:1px;stroke-linecap:butt;stroke-linejoin:miter;stroke-opacity:1" />
      <path
         sodipodi:nodetypes="ccccc"
         inkscape:connector-curvature="0"
         id="path2985-9"
         d="M 432.21564,44.325068 C 633.0135,245.29128 629.70046,241.64153 729.20049,341.30992 L 563.03039,436.76934 333.97831,207.21217 z"
         style="fill:none;stroke:#000000;stroke-width:1px;stroke-linecap:butt;stroke-linejoin:miter;stroke-opacity:1" />
      <path
         inkscape:connector-curvature="0"
         id="path3019"
         d="m 333.75007,207.4404 -42.42641,42.42641"
         style="fill:none;stroke:#000000;stroke-width:1px;stroke-linecap:butt;stroke-linejoin:miter;stroke-opacity:1" />
      <path
         inkscape:connector-curvature="0"
         id="path3021"
         d="m 563.55977,437.25011 -42.42641,42.4264"
         style="fill:none;stroke:#000000;stroke-width:1px;stroke-linecap:butt;stroke-linejoin:miter;stroke-opacity:1" />
      <path
         inkscape:connector-curvature="0"
         id="path3023"
         d="M 379.71201,571.60039 351.42774,543.31612"
         style="fill:#ff0000;stroke:#000000;stroke-width:1px;stroke-linecap:butt;stroke-linejoin:miter;stroke-opacity:1" />
      <path
         inkscape:connector-curvature="0"
         id="path3067"
         d="m 131.50169,349.03209 c 0.41104,-0.42235 36.59941,-22.41875 80.41883,-48.8807 l 79.67166,-48.11264 113.99661,113.99661 113.99661,113.99661 -3.15997,5.42632 c -1.738,2.98448 -22.71785,39.45471 -46.62192,81.04497 -23.90407,41.59026 -43.82929,75.986 -44.27826,76.43497 -0.44898,0.44898 -66.95606,-65.32341 -147.79352,-146.16087 C 196.89427,415.9399 131.09076,349.45453 131.50169,349.03209 z m 241.68189,215.43305 c -3.83625,-4.21972 -10.42748,-10.81096 -14.64721,-14.64721 -4.21973,-3.83623 -1.08099,-0.38374 6.97498,7.67223 8.05597,8.05597 11.50847,11.19471 7.67223,6.97498 z"
         style="fill:#000000;stroke-width:5;stroke-miterlimit:4;stroke-dasharray:none" />
      <path
         inkscape:connector-curvature="0"
         id="path3069"
         d="m 131.13673,595.12589 c 53.30372,-75.30381 97.70294,-138.17447 98.66495,-139.7126 l 1.74909,-2.79659 38.1165,38.1165 38.1165,38.1165 -3.29952,2.25631 c -1.81474,1.24098 -62.74151,46.91055 -135.39284,101.48794 -72.651327,54.57739 -132.718195,99.28028 -133.481919,99.33977 -0.763725,0.0595 42.223532,-61.50404 95.527239,-136.80783 z"
         style="fill:#000000;stroke-width:5;stroke-miterlimit:4;stroke-dasharray:none" />
      <path
         inkscape:connector-curvature="0"
         id="path3071"
         d="M 313.59215,229.59201 333.7952,209.38895 447.94244,323.53619 562.08967,437.68343 541.88662,457.88648 521.68357,478.08953 407.53633,363.94229 293.3891,249.79506 313.59215,229.59201 z"
         style="fill:#000000;stroke-width:5;stroke-miterlimit:4;stroke-dasharray:none" />
      <path
         inkscape:connector-curvature="0"
         id="path3073"
         d="m 336.55208,205.57985 c 0.43999,-0.94897 21.6937,-36.28905 47.23047,-78.53352 25.53678,-42.244462 46.97972,-77.849892 47.65097,-79.123172 1.15852,-2.19753 8.71565,5.18011 148.85501,145.319472 117.66716,117.66716 147.28954,147.80215 145.935,148.46037 -0.93474,0.45423 -37.90115,21.66225 -82.14757,47.12895 L 563.62791,435.13504 449.68999,321.22017 C 359.45154,230.99996 335.91847,206.94638 336.55205,205.57987 z"
         style="fill:#000000;stroke-width:5;stroke-miterlimit:4;stroke-dasharray:none" />
    </g>
  </g>
</svg>
